<?xml version="1.0" encoding="UTF-8" standalone="no"?>
<svg
   width="16"
   height="16"
   viewBox="0 0 16 16"
   version="1.1"
   id="svg826"
   sodipodi:docname="icon-linkedin.svg"
   inkscape:version="1.1.1 (c3084ef, 2021-09-22)"
   xmlns:inkscape="http://www.inkscape.org/namespaces/inkscape"
   xmlns:sodipodi="http://sodipodi.sourceforge.net/DTD/sodipodi-0.dtd"
   xmlns="http://www.w3.org/2000/svg"
   xmlns:svg="http://www.w3.org/2000/svg">
  <defs
     id="defs830" />
  <sodipodi:namedview
     id="namedview828"
     pagecolor="#ffffff"
     bordercolor="#666666"
     borderopacity="1.0"
     inkscape:pageshadow="2"
     inkscape:pageopacity="0.0"
     inkscape:pagecheckerboard="0"
     showgrid="false"
     inkscape:zoom="26.041667"
     inkscape:cx="8.0832"
     inkscape:cy="12"
     inkscape:window-width="1440"
     inkscape:window-height="847"
     inkscape:window-x="0"
     inkscape:window-y="25"
     inkscape:window-maximized="1"
     inkscape:current-layer="svg826" />
  <path
     d="M 8,0 C 3.582,0 0,3.582 0,8 c 0,4.418 3.582,8 8,8 4.418,0 8,-3.582 8,-8 C 16,3.582 12.418,0 8,0 Z M 6.6666667,10.666667 H 5.3333333 v -4 H 6.6666667 Z M 6,6.072667 C 5.5953333,6.072667 5.2666667,5.742 5.2666667,5.333333 5.2666667,4.925334 5.5946667,4.594 6,4.594 6.4053333,4.594 6.7333333,4.925334 6.7333333,5.333333 6.7333333,5.742 6.4046667,6.072667 6,6.072667 Z m 5.333333,4.594 h -1.332 V 8.759334 c 0,-1.254 -1.3346663,-1.148001 -1.3346663,0 v 1.907333 H 7.3333333 v -4 H 8.6666667 V 7.395334 C 9.248,6.318 11.333333,6.238 11.333333,8.427333 Z"
     id="path824"
     style="stroke-width:0.666667" />
</svg>
